<svg xmlns="http://www.w3.org/2000/svg" width="917" height="917" viewBox="0 0 917 917"><defs><style>.a,.b,.c,.d,.g,.i{fill:none;}.a,.b,.c,.d{stroke:#fff;stroke-width:2px;}.a{opacity:0.7;}.b{opacity:0.5;}.c{opacity:0.3;}.d{opacity:0.22;}.e{opacity:0.6;}.f{fill:#fff;}.g{stroke:#f40009;stroke-linecap:round;stroke-linejoin:round;stroke-width:3px;}.h{opacity:0.85;}.j{opacity:0.75;}.k{opacity:0.8;}.l{opacity:0.4;}.m{stroke:none;}</style></defs><g transform="translate(-197 -83)"><g class="a" transform="translate(424.695 310.695)"><circle class="m" cx="230.772" cy="230.772" r="230.772"/><circle class="i" cx="230.772" cy="230.772" r="229.772"/></g><g class="b" transform="translate(346 232)"><circle class="m" cx="309.5" cy="309.5" r="309.5"/><circle class="i" cx="309.5" cy="309.5" r="308.5"/></g><g class="c" transform="translate(272.386 158.385)"><circle class="m" cx="383.081" cy="383.081" r="383.081"/><circle class="i" cx="383.081" cy="383.081" r="382.081"/></g><g class="d" transform="translate(197 83)"><circle class="m" cx="458.5" cy="458.5" r="458.5"/><circle class="i" cx="458.5" cy="458.5" r="457.5"/></g><g class="e" transform="translate(209.362 326.859)"><ellipse class="f" cx="28.5" cy="28" rx="28.5" ry="28" transform="translate(-0.361 0.141)"/><g transform="translate(16.515 17.219)"><path class="g" d="M5,5h9.346v9.346H5Z" transform="translate(-5 -5)"/><path class="g" d="M23.333,5H32.68v9.346H23.333Z" transform="translate(-9.654 -5)"/><path class="g" d="M23.333,23.333H32.68V32.68H23.333Z" transform="translate(-9.654 -9.654)"/><path class="g" d="M5,23.333h9.346V32.68H5Z" transform="translate(-5 -9.654)"/></g></g><g class="h" transform="translate(318.368 592.07)"><ellipse class="f" cx="53" cy="53.5" rx="53" ry="53.5" transform="translate(-0.368 -0.07)"/><g transform="translate(17.767 16.339)"><path class="i" d="M0,0H68.857V68.857H0Z"/><path class="g" d="M3,52.774v-37.3L28.821,4,54.643,15.476v37.3" transform="translate(5.607 7.476)"/><path class="g" d="M24.214,13H35.69V35.952H7V18.738H24.214" transform="translate(13.083 24.298)"/><path class="g" d="M20.476,39.69V13.869A2.869,2.869,0,0,0,17.607,11H11.869A2.869,2.869,0,0,0,9,13.869v8.607" transform="translate(16.821 20.559)"/></g></g><g transform="translate(774.62 614.545)"><ellipse class="f" cx="64" cy="63.5" rx="64" ry="63.5" transform="translate(0.38 0.455)"/><g transform="translate(27.912 24.972)"><path class="i" d="M0,0H75.355V75.355H0Z"/><circle class="g" cx="6.852" cy="6.852" r="6.852" transform="translate(52.856 34.245)"/><ellipse class="g" cx="6.852" cy="5.873" rx="6.852" ry="5.873" transform="translate(5.873 47.948)"/><circle class="g" cx="5.873" cy="5.873" r="5.873" transform="translate(35.238 47.948)"/><line class="g" x1="29.365" transform="translate(11.746 59.694)"/><line class="g" x2="29.365" transform="translate(11.746 47.948)"/><path class="g" d="M8,22.7V7h6.28A9.419,9.419,0,0,1,23.7,16.419v15.7" transform="translate(17.118 14.979)"/><path class="g" d="M5,21.419V15.14A3.14,3.14,0,0,1,8.14,12H30.118" transform="translate(10.699 25.678)"/><path class="g" d="M31.839,25.979V4L13,25.979" transform="translate(27.817 8.559)"/></g></g><g class="h" transform="translate(838.675 284.156)"><ellipse class="f" cx="48" cy="49" rx="48" ry="49" transform="translate(0.325 -0.156)"/><g transform="translate(20.136 19.987)"><path class="i" d="M0,0H57.655V57.655H0Z"/><path class="g" d="M12.368,19.309h6.941V12.368l-8.1-8.1A13.882,13.882,0,0,1,29.72,22.779L43.6,36.661A4.908,4.908,0,0,1,36.661,43.6L22.779,29.72A13.882,13.882,0,0,1,4.27,11.211l8.1,8.1" transform="translate(4.898 4.898)"/></g></g><g class="j" transform="translate(566.722 877.509)"><circle class="f" cx="44" cy="44" r="44" transform="translate(0.278 0.491)"/><g transform="translate(18.298 17.556)"><path class="i" d="M0,0H51.624V51.624H0Z"/><circle class="g" cx="4.5" cy="4.5" r="4.5" transform="translate(5.98 34.936)"/><ellipse class="g" cx="4.5" cy="4" rx="4.5" ry="4" transform="translate(35.98 8.936)"/><path class="g" d="M28.208,8V18.755A10.755,10.755,0,0,1,17.453,29.51H11l6.453-6.453m0,12.906L11,29.51" transform="translate(12.661 9.208)"/><path class="g" d="M5,30.963V20.208A10.755,10.755,0,0,1,15.755,9.453h6.453L15.755,3m0,12.906,6.453-6.453" transform="translate(5.755 3.453)"/></g></g><g class="j" transform="translate(475.696 143.684)"><circle class="f" cx="44" cy="44" r="44" transform="translate(0.304 0.316)"/><g transform="translate(19.778 17.296)"><path class="i" d="M0,0H48.4V48.4H0Z"/><path class="g" d="M12,9v4.033M12,21.1v.02" transform="translate(12.201 9.15)"/><path class="g" d="M7.041,35.3H35.275a4.033,4.033,0,0,0,3.711-5.546L24.667,5.049a4.033,4.033,0,0,0-7.059,0L3.289,29.754A4.033,4.033,0,0,0,6.819,35.3" transform="translate(3.043 3.018)"/></g></g><g class="k" transform="translate(1046.573 678.601)"><circle class="f" cx="33.5" cy="33.5" r="33.5" transform="translate(0.426 0.399)"/><g transform="translate(13.917 15.033)"><path class="i" d="M0,0H39.662V39.662H0Z"/><path class="g" d="M15.105,5.176a2.848,2.848,0,0,1,5.536,0,2.849,2.849,0,0,0,4.252,1.762,2.85,2.85,0,0,1,3.917,3.917,2.849,2.849,0,0,0,1.76,4.25,2.848,2.848,0,0,1,0,5.536,2.849,2.849,0,0,0-1.762,4.252,2.85,2.85,0,0,1-3.917,3.917,2.849,2.849,0,0,0-4.25,1.76,2.849,2.849,0,0,1-5.536,0,2.849,2.849,0,0,0-4.252-1.762,2.85,2.85,0,0,1-3.917-3.917,2.849,2.849,0,0,0-1.76-4.25,2.849,2.849,0,0,1,0-5.536,2.849,2.849,0,0,0,1.762-4.252,2.85,2.85,0,0,1,3.917-3.917,2.847,2.847,0,0,0,4.25-1.76Z" transform="translate(1.958 1.958)"/><circle class="g" cx="5.378" cy="5.378" r="5.378" transform="translate(14.453 14.453)"/></g></g><g class="l" transform="translate(203.977 733.595)"><g transform="translate(60.071 -372.307)"><path class="f" d="M434.129,19.89a103.084,103.084,0,0,0,9.778-3.963q4.5-2.116,8.459-4.228Q468.222,2.446,473.775-5.22t8.983-7.134c.177.177.311.265.4.265h.134q3.171,1.32-2.644,10.305t-16.916,19.56A183.425,183.425,0,0,1,448,30.725,96.152,96.152,0,0,1,429.9,41.3q-6.077,2.906-11.5,5.02a88.252,88.252,0,0,1-10.7,3.436q-4.492,1.055-9.251,1.718a72.813,72.813,0,0,1-10.043.661q-3.7,0-8.06-.265a88.5,88.5,0,0,1-9.117-1.057l16.916-22.466a113.151,113.151,0,0,0,13.61-.265,87.007,87.007,0,0,0,12.023-1.849,66.749,66.749,0,0,0,9.647-2.379q4.889-1.586,10.7-3.7Zm-327.2,22.728q.53.53-1.188,4.231t-4.1,7.929a8.891,8.891,0,0,1-.53.923,9.245,9.245,0,0,0-.527.926q-2.116,3.7-3.963,6.738a13.143,13.143,0,0,1-2.379,3.305,13.731,13.731,0,0,1-3.7.661,64.553,64.553,0,0,1-7.4.4H80.505a54.556,54.556,0,0,1-5.681-.265c-1.675-.177-2.687-.442-3.04-.792q-.53-.8,1.057-4.231T76.8,54.778a7.482,7.482,0,0,1,.661-1.456q.4-.658.926-1.453,2.116-3.436,3.832-6.077t2.51-2.909a15.489,15.489,0,0,1,3.567-.527q3.043-.265,6.741-.265h.792q3.966,0,7.4.131t3.7.661ZM-139.918,85.962c.356,0,.707-.265,1.06-.792s.7-1.057,1.057-1.587a36.853,36.853,0,0,0,2.51-5.812,66.98,66.98,0,0,0,1.983-6.872q.265-1.586.4-3.171t.134-3.171v-.8a12.681,12.681,0,0,0-1.456-5.812,7.136,7.136,0,0,0-2.775-2.644,5.077,5.077,0,0,0-1.057-.4,4.331,4.331,0,0,0-1.057-.131h-1.057a10.515,10.515,0,0,0-2.775.4c-.969.262-1.983.573-3.037.923a23.97,23.97,0,0,0-5.684,3.7,33.26,33.26,0,0,0-4.624,4.758,16.346,16.346,0,0,0-2.114,3.171,11.736,11.736,0,0,0-1.06,2.906V70.9a7.4,7.4,0,0,0,.926,3.171,18.411,18.411,0,0,0,2.51,3.7,26.183,26.183,0,0,0,5.949,5.681,16.679,16.679,0,0,0,7.268,3.04h1.319a.764.764,0,0,0,.53-.265h1.054ZM16.017,57.419a18,18,0,0,1-1.453,1.322q-.663.525-1.453,1.057a71.183,71.183,0,0,0-8.986,8.986Q-.9,74.6-10.677,87.814q-2.116,3.171-4.094,6.473t-3.835,6.476a102.518,102.518,0,0,0-5.946,14.4,39.514,39.514,0,0,0-2.245,11.5,11.127,11.127,0,0,0,.4,3.174,3.249,3.249,0,0,0,1.188,1.849,8.648,8.648,0,0,1,.926.53,1.651,1.651,0,0,0,.926.262,1.072,1.072,0,0,0,.792.265h.792q3.436.265,6.741-2.906a49.416,49.416,0,0,0,5.946-6.872,8.113,8.113,0,0,0,1.322-1.718q.525-.923,1.057-1.718,10.043-15.86,18.63-30.261T28.7,61.386a10.038,10.038,0,0,0,1.057-2.248,8.81,8.81,0,0,1,.527-1.453,2.324,2.324,0,0,0-.658-1.718,9.305,9.305,0,0,0-1.456-1.188.536.536,0,0,1-.4-.134.535.535,0,0,0-.4-.131,4.741,4.741,0,0,0-1.188-.4A6.38,6.38,0,0,0,25,53.983a11.276,11.276,0,0,0-3.963.8,22.275,22.275,0,0,0-5.023,2.906Zm-196.635,44.932a12.038,12.038,0,0,1-.658,1.584c-.265.53-.484.972-.661,1.322q-.8,2.116-1.718,4.228t-1.718,4.228a50.88,50.88,0,0,0-2.51,7.268,25.154,25.154,0,0,0-.926,6.211,7,7,0,0,0,.661,3.171,3.926,3.926,0,0,0,1.718,1.852c.53.173,1.057.353,1.584.527a5.858,5.858,0,0,0,1.849.265,17.585,17.585,0,0,0,6.872-1.584,48.279,48.279,0,0,0,7.664-4.231,55.43,55.43,0,0,0,5.553-4.624,45.612,45.612,0,0,0,5.02-5.681q1.055-1.325,3.04-4.1t4.094-5.949a7.4,7.4,0,0,1,.664-1.057,6.742,6.742,0,0,0,.658-1.057q2.116-3.431,3.966-6.738a32.7,32.7,0,0,0,2.379-4.889q-2.646-.265-4.758-.661a12.655,12.655,0,0,1-3.963-1.453,5.778,5.778,0,0,1-1.983-.926,14.851,14.851,0,0,0-1.983-1.188,26.555,26.555,0,0,1-5.946-5.023,29.19,29.19,0,0,1-4.1-6.607,42.972,42.972,0,0,0-3.7,4.758q-1.591,2.376-2.91,4.493-1.055,1.851-1.849,3.436T-175.86,93.1q-1.321,2.376-2.379,4.624t-2.379,4.889ZM2.537,156q-7.133,0-10.57-2.775a17.37,17.37,0,0,1-5.02-6.208,32.451,32.451,0,0,1-1.191-4.627q-.4-2.243-.661-3.567a.55.55,0,0,0-.131-.4.546.546,0,0,1-.131-.4q0,.79-1.852,3.3a38.554,38.554,0,0,1-5.023,5.416,43.658,43.658,0,0,1-9.117,6.345A23.966,23.966,0,0,1-42.656,156q-9.513,0-13.345-4.624A18.438,18.438,0,0,1-60.363,141.2a2.929,2.929,0,0,1-.265-1.319v-1.587a32.944,32.944,0,0,1,.4-5.154c.262-1.672.481-3.129.658-4.359.177-.884.353-1.63.53-2.248a3.085,3.085,0,0,1,.527-1.188q0,1.055-3.963,5.55a94.587,94.587,0,0,1-10.308,9.778,123.554,123.554,0,0,1-13.479,9.117,44.408,44.408,0,0,1-15.063,5.684c-1.057.173-2.026.308-2.906.4S-106,156-106.879,156h-1.849q-14.009-.79-18.768-6.872t-5.547-15.859v-.792a40.715,40.715,0,0,1,1.188-8.456q1.193-5.287,3.04-10.835.525-2.116,1.319-4.362t1.587-4.359a90.325,90.325,0,0,1,3.7-9.516q1.85-3.966,2.644-4.493l-12.953,2.379a69.887,69.887,0,0,1-4.094,7.929q-3.308,5.812-7.8,12.422-1.325,2.111-2.906,4.228c-1.06,1.407-2.117,2.821-3.174,4.228a7.186,7.186,0,0,1-.658,1.06,10.193,10.193,0,0,1-.926,1.054,167.211,167.211,0,0,1-21.144,21.936Q-184.319,155.21-197,156h-1.319a19.524,19.524,0,0,1-3.171-.262l-3.174-.53a25.228,25.228,0,0,1-9.778-5.681q-4.491-4.1-5.285-12.026v-1.849a2.13,2.13,0,0,1-.265-.926V133.8a56.211,56.211,0,0,1,4.1-20.352q4.1-10.569,13.61-25.107a132.514,132.514,0,0,1,9.251-12.553q4.757-5.684,9.513-10.439Q-171.365,53.72-160,48.168t18.5-5.285a21.913,21.913,0,0,1,13.083,4.493q5.419,4.231,5.946,14.01v1.054a32.029,32.029,0,0,1-.265,3.966,25.8,25.8,0,0,1-.792,3.963q-.53,2.381-1.188,4.627a37.464,37.464,0,0,1-1.453,4.094q-1.06,2.911-1.983,4.889a5.492,5.492,0,0,1-1.456,2.248,4.2,4.2,0,0,0,1.06-.134,4.488,4.488,0,0,1,1.054-.131,22.675,22.675,0,0,0,5.288-.792,25.14,25.14,0,0,0,7.929-4.228,100.42,100.42,0,0,0,8.456-6.872q3.436-3.171,6.342-6.342a3.082,3.082,0,0,0,.8-.53l.792-.792q2.381-2.116,5.02-4.493t6.08-5.02a131.138,131.138,0,0,1,12.157-8.325,50.781,50.781,0,0,1,10.574-4.889,39.113,39.113,0,0,1,3.963-.8,26.063,26.063,0,0,1,3.7-.265h1.587a2.129,2.129,0,0,0,.926.265h.661A21.029,21.029,0,0,1-41.2,47.641a13.659,13.659,0,0,1,5.154,11.1v.792a24.7,24.7,0,0,1-3.832,12.688,37.659,37.659,0,0,1-7.8,8.986A24.651,24.651,0,0,1-52.3,84.113a9.362,9.362,0,0,1-3.832,1.057h-.792a7.128,7.128,0,0,1-5.02-2.775,8.274,8.274,0,0,1-1.587-4.889,9.585,9.585,0,0,1,.131-1.584,4.878,4.878,0,0,1,.4-1.322,14.288,14.288,0,0,1,.926-3.171,12.3,12.3,0,0,1,1.453-2.644,16.779,16.779,0,0,1,2.909-3.171,37.067,37.067,0,0,1,3.171-2.379A19.029,19.029,0,0,1-49,60.724a18.033,18.033,0,0,1,3.963-.664h.53s-.043-.085-.134-.262a1.17,1.17,0,0,1-.131-.527V58.61a2.128,2.128,0,0,0-.265-.926,5.511,5.511,0,0,0-1.98-1.587,11.791,11.791,0,0,0-5.154-.792q-3.176,0-8.194,3.57a83.878,83.878,0,0,0-10.57,9.114q-3.436,3.706-6.872,7.8a87.05,87.05,0,0,0-6.345,8.59A19.99,19.99,0,0,0-85.6,86.623a19.583,19.583,0,0,1-1.453,2.248q-2.381,3.961-4.758,8.721t-4.49,9.513a126.976,126.976,0,0,0-4.758,13.745,42.535,42.535,0,0,0-1.849,11.1,11.7,11.7,0,0,0,.527,3.7,4.756,4.756,0,0,0,1.587,2.379c.35.173.749.35,1.188.527a4.676,4.676,0,0,0,1.718.265q3.7,0,9.513-2.513a68.778,68.778,0,0,0,11.9-6.738,104.666,104.666,0,0,0,10.174-7.533,65.732,65.732,0,0,0,8.59-8.59Q-43.98,96.8-33.8,82.791a215.468,215.468,0,0,1,19.426-23.52q2.376-2.116,4.49-4.1a34.67,34.67,0,0,1,4.5-3.57q2.111-1.586,3.963-2.775a25.167,25.167,0,0,1,3.7-1.98,32.609,32.609,0,0,1,7.926-3.04,39.594,39.594,0,0,1,8.986-.926,28.424,28.424,0,0,1,8.855,1.057,14.942,14.942,0,0,1,4.624,2.379,10.135,10.135,0,0,1,1.718,1.587c.442.527.838.969,1.188,1.319l.134.134.131.131a3.132,3.132,0,0,1,.4-1.322,14.154,14.154,0,0,1,.923-1.584,1.617,1.617,0,0,0,.4-.661,1.692,1.692,0,0,1,.4-.661,7.365,7.365,0,0,1,.661-1.057,7.64,7.64,0,0,1,.661-.792q.53-.53,3.57-.661t6.738-.134H51.17q4.491,0,8.456.265t4.228.8q.53.525-6.741,12.55T41.389,83.056a19.466,19.466,0,0,0-1.322,1.983q-.525.923-1.057,1.98-7.928,13.745-14.137,25.771T18.661,128.78a2.178,2.178,0,0,0,.131.661,1.64,1.64,0,0,0,.4.658,4.851,4.851,0,0,0,1.191.4,6.084,6.084,0,0,0,1.188.131q2.641.265,6.08-2.114a52.481,52.481,0,0,0,7.134-6.08q1.325-1.32,2.644-2.906l2.641-3.171q1.06-1.586,2.248-3.436t2.248-3.7a7.065,7.065,0,0,1,.658-1.057,4.5,4.5,0,0,0,.661-1.322,36.509,36.509,0,0,1,4.362-6.211q2.243-2.508,4.624-1.718,2.646,1.06-1.715,9.782A103.9,103.9,0,0,1,40.6,127.458a111.626,111.626,0,0,1-9.912,11.627,100.32,100.32,0,0,1-10.966,9.782,54.328,54.328,0,0,1-8.855,5.151A20.105,20.105,0,0,1,2.538,156m265.616-14.006c.35,0,.7-.265,1.057-.8s.7-1.054,1.057-1.584a36.886,36.886,0,0,0,2.51-5.815,67.6,67.6,0,0,0,1.983-6.872q.265-1.586.4-3.171c.088-1.054.131-2.114.131-3.171v-.792a12.646,12.646,0,0,0-1.453-5.815,7.183,7.183,0,0,0-2.775-2.644,5.346,5.346,0,0,0-1.057-.4,4.328,4.328,0,0,0-1.057-.131h-1.057a10.515,10.515,0,0,0-2.775.4q-1.453.4-3.04.926a24.1,24.1,0,0,0-5.681,3.7,33.254,33.254,0,0,0-4.624,4.758,16.613,16.613,0,0,0-2.117,3.171,11.853,11.853,0,0,0-1.057,2.906v.265a7.327,7.327,0,0,0,.926,3.171,18.184,18.184,0,0,0,2.51,3.7,26.232,26.232,0,0,0,5.946,5.681,16.683,16.683,0,0,0,7.272,3.04h1.319a.759.759,0,0,0,.527-.262h1.06Zm136.375-28.546a18.086,18.086,0,0,1-1.456,1.325q-.658.525-1.453,1.054a71.856,71.856,0,0,0-8.986,8.986q-5.022,5.817-14.8,19.03-2.116,3.171-4.1,6.476t-3.832,6.473A101.994,101.994,0,0,0,363.96,171.2a39.388,39.388,0,0,0-2.245,11.5,11.094,11.094,0,0,0,.4,3.171,3.223,3.223,0,0,0,1.188,1.849,8.647,8.647,0,0,1,.926.53,1.61,1.61,0,0,0,.923.265,1.079,1.079,0,0,0,.8.262h.792q3.436.265,6.738-2.906a49.032,49.032,0,0,0,5.949-6.872,8.016,8.016,0,0,0,1.319-1.718c.353-.615.7-1.188,1.057-1.715q10.044-15.86,18.634-30.264t16.785-27.882a9.915,9.915,0,0,0,1.057-2.248,8.524,8.524,0,0,1,.527-1.453,2.323,2.323,0,0,0-.661-1.718,9.658,9.658,0,0,0-1.453-1.188.535.535,0,0,1-.4-.131.541.541,0,0,0-.4-.134,4.716,4.716,0,0,0-1.191-.4,6.057,6.057,0,0,0-1.188-.131,11.373,11.373,0,0,0-3.966.792,22.259,22.259,0,0,0-5.02,2.906ZM227.454,158.379a12.273,12.273,0,0,1-.661,1.587c-.265.527-.484.969-.664,1.322q-.79,2.111-1.715,4.228t-1.718,4.228a50.605,50.605,0,0,0-2.51,7.268,25.154,25.154,0,0,0-.926,6.211,7.012,7.012,0,0,0,.661,3.171,3.931,3.931,0,0,0,1.718,1.849c.527.177,1.057.353,1.584.527a5.847,5.847,0,0,0,1.852.268,17.534,17.534,0,0,0,6.869-1.587,48.162,48.162,0,0,0,7.667-4.228,56.22,56.22,0,0,0,5.55-4.624,45.674,45.674,0,0,0,5.02-5.684q1.055-1.32,3.04-4.1t4.094-5.946a7.191,7.191,0,0,1,.661-1.057,7.216,7.216,0,0,0,.664-1.057q2.111-3.436,3.96-6.741a32.379,32.379,0,0,0,2.379-4.889q-2.641-.265-4.755-.658a12.758,12.758,0,0,1-3.966-1.453,5.913,5.913,0,0,1-1.98-.926A14.746,14.746,0,0,0,252.3,144.9a26.61,26.61,0,0,1-5.946-5.02,29.4,29.4,0,0,1-4.1-6.61,44.286,44.286,0,0,0-3.7,4.762q-1.581,2.376-2.906,4.49-1.055,1.851-1.849,3.436c-.53,1.06-1.057,2.114-1.587,3.171q-1.321,2.381-2.379,4.627t-2.376,4.886ZM348.5,75.392q-4.226,6.872-7.664,12.553T334.491,99.18q-2.111,3.961-4.228,8.057t-3.966,8.59q-1.32,3.176-2.775,6.345t-2.772,6.869q7.132-4.757,16.647-12.023a217.1,217.1,0,0,0,19.557-17.046c1.06-1.06,2.071-2.114,3.04-3.174s1.983-2.114,3.04-3.168q4.757-5.027,8.456-9.12t6.872-7.8c.883-1.054,1.718-2.068,2.513-3.037s1.63-1.983,2.51-3.04q2.641-3.171,5.416-7t5.946-8.59l10.047-1.849q-3.171,5.282-6.08,9.513T392.9,70.9q-1.851,2.376-3.7,4.758a48.454,48.454,0,0,1-3.966,4.493q-3.436,4.226-7.4,8.456t-8.721,9.251q-5.022,5.282-9.647,9.778t-8.855,8.191q-3.7,3.176-7.268,6.211a80.114,80.114,0,0,1-7.53,5.684q-4.231,3.171-8.721,6.211t-9.782,6.473q-.26,0-2.376,4.231t-4.493,10.305q-.8,2.381-1.718,4.758t-1.718,4.755a84.646,84.646,0,0,0-2.513,9.12,38.094,38.094,0,0,0-.923,7.8,9.066,9.066,0,0,0,.527,4.493,3.959,3.959,0,0,0,2.644,2.379,2.129,2.129,0,0,0,.923.265h.664a9.838,9.838,0,0,0,5.02-1.584,34.97,34.97,0,0,0,5.288-3.966q2.111-1.851,4.094-3.966t3.832-4.49c.7-.884,1.41-1.718,2.114-2.513s1.41-1.63,2.114-2.51q13.745-16.65,23.919-30.657A215.977,215.977,0,0,1,374.134,115.3q2.381-2.116,4.493-4.1a34.84,34.84,0,0,1,4.493-3.567q2.116-1.586,3.966-2.775a25.293,25.293,0,0,1,3.7-1.983,32.529,32.529,0,0,1,7.929-3.037,39.773,39.773,0,0,1,8.986-.929,28.3,28.3,0,0,1,8.852,1.06,14.865,14.865,0,0,1,4.624,2.379,10.158,10.158,0,0,1,1.721,1.584q.663.8,1.188,1.322s.043.046.134.131.131.134.131.134a3.1,3.1,0,0,1,.4-1.322,14.735,14.735,0,0,1,.926-1.587,1.632,1.632,0,0,0,.4-.661,1.642,1.642,0,0,1,.4-.658,6.776,6.776,0,0,1,.661-1.057,7.364,7.364,0,0,1,.661-.8q.525-.525,3.567-.661t6.738-.131h1.587q4.492,0,8.456.262c2.644.18,4.055.442,4.231.8q.525.53-6.741,12.553T429.9,139.085a19.632,19.632,0,0,0-1.322,1.983c-.353.615-.7,1.276-1.057,1.983q-7.928,13.745-14.141,25.768t-6.211,15.993a2.183,2.183,0,0,0,.134.658,1.653,1.653,0,0,0,.4.661,4.715,4.715,0,0,0,1.191.4,6.059,6.059,0,0,0,1.188.131q2.641.265,6.077-2.114a52.415,52.415,0,0,0,7.137-6.077q1.32-1.32,2.644-2.906c.88-1.057,1.761-2.117,2.641-3.171.707-1.06,1.453-2.2,2.248-3.439s1.538-2.464,2.245-3.7a6.771,6.771,0,0,1,.661-1.057,4.621,4.621,0,0,0,.661-1.322,36.254,36.254,0,0,1,4.362-6.211q2.243-2.508,4.624-1.718,2.641,1.055-1.718,9.647a114.02,114.02,0,0,1-12.557,18.9,117.145,117.145,0,0,1-9.909,11.235,109.406,109.406,0,0,1-10.97,9.647,63.26,63.26,0,0,1-8.852,5.285,19.119,19.119,0,0,1-8.325,2.114q-7.137,0-10.573-2.775a16.806,16.806,0,0,1-5.02-6.476,33.971,33.971,0,0,1-1.188-4.493c-.268-1.41-.484-2.464-.664-3.171a.535.535,0,0,0-.131-.4.541.541,0,0,1-.131-.4c0,.527-.618,1.587-1.852,3.171a45.382,45.382,0,0,1-14.137,11.631,23.976,23.976,0,0,1-11.5,2.906q-9.518,0-13.349-4.624a18.445,18.445,0,0,1-4.359-10.177,2.62,2.62,0,0,1-.265-1.188v-1.453a32.885,32.885,0,0,1,.4-5.154q.4-2.513.661-4.359.265-1.325.53-2.251a2.986,2.986,0,0,1,.527-1.188q0,1.06-3.832,5.553a104.648,104.648,0,0,1-9.382,9.513q-1.851,1.581-3.966,3.436t-4.228,3.433a60.658,60.658,0,0,1-8.721,6.08,15.6,15.6,0,0,1-7.4,2.379,15.3,15.3,0,0,1-12.157-5.55,18.946,18.946,0,0,1-4.758-12.684,59.462,59.462,0,0,1,.926-9.12q.923-5.679,2.245-11.761.53-2.906,1.057-5.55a42.409,42.409,0,0,1,1.322-5.02q1.32-5.552,2.644-9.651t2.114-4.624l-10.308,1.587a64.106,64.106,0,0,1-4.228,7.929q-3.436,5.817-7.929,12.422-1.32,2.111-2.775,4.094t-3.04,3.832a6.693,6.693,0,0,1-.661,1.06,9.862,9.862,0,0,1-.923,1.057,160.791,160.791,0,0,1-21.144,21.8q-11.1,9.386-23.788,10.178h-1.319a19.242,19.242,0,0,1-3.174-.265c-1.057-.177-2.114-.35-3.171-.527a25.211,25.211,0,0,1-9.778-5.684q-4.492-4.1-5.285-11.758V191.68a2.13,2.13,0,0,1-.265-.926v-.923a56.279,56.279,0,0,1,4.1-20.352q4.094-10.569,13.61-25.107a132.013,132.013,0,0,1,9.252-12.553q4.756-5.684,9.513-10.443Q236.7,109.753,248.067,104.2t18.5-5.288a21.917,21.917,0,0,1,13.084,4.5q5.419,4.226,5.946,14.006v1.057a24.349,24.349,0,0,1-.265,3.436q-.26,1.851-.527,3.7-.53,2.376-1.191,4.755a33.249,33.249,0,0,1-1.453,4.231q-1.055,2.641-1.849,4.49a8.544,8.544,0,0,1-1.322,2.379l8.986-2.114q2.641-6.872,4.755-12.288t4.231-9.912a50.888,50.888,0,0,1,2.245-4.889q1.193-2.243,2.248-4.624,2.641-4.757,5.681-10.043t7-11.9q4.231-6.872,9.516-14.4t11.362-15.2q4.762-5.812,9.651-11.761t10.171-11.493Q364.623,22,374.268,13.018A137.942,137.942,0,0,1,391.05-.723Q401.623-7.6,408.1-9.975a33.867,33.867,0,0,1,11.5-2.379q2.116,0,3.966.131a18.341,18.341,0,0,1,3.7.661,8.229,8.229,0,0,1,5.684,3.171,11.722,11.722,0,0,1,2.245,6.342V-.462a19.56,19.56,0,0,1-.262,3.171c-.18,1.06-.354,2.2-.53,3.436q-.53,2.116-1.322,4.362t-1.587,4.1c-.7,1.407-1.319,2.556-1.849,3.436a4.347,4.347,0,0,1-1.319,1.584L418.8,22a14.9,14.9,0,0,0,1.453-1.849,17.612,17.612,0,0,0,1.718-3.171q.8-1.586,1.587-3.305a31.861,31.861,0,0,0,1.319-3.305,19.862,19.862,0,0,0,1.191-3.7,16.364,16.364,0,0,0,.4-3.433A8.624,8.624,0,0,0,425.8-.327a3.66,3.66,0,0,0-2.51-1.983,1.174,1.174,0,0,1-.53-.131c-.173-.092-.262-.134-.262-.134h-1.057q-7.4-.26-20.617,12.157A279.779,279.779,0,0,0,373.077,40.5Q366.735,48.7,360.524,57.55T348.5,75.657ZM247.8,7.733a76.348,76.348,0,0,0-7.664,3.832,73.648,73.648,0,0,0-9.248,6.211,77.774,77.774,0,0,0-8.328,7.268,58,58,0,0,0-7.268,8.852,20.325,20.325,0,0,0-1.453,2.248,19.5,19.5,0,0,1-1.453,2.245q-1.32,2.116-2.51,4.228t-2.51,4.493a81.2,81.2,0,0,0-4.1,8.986,22.629,22.629,0,0,0-1.718,7.929,7.783,7.783,0,0,0,.527,2.906,7.038,7.038,0,0,0,1.587,2.382,8.377,8.377,0,0,0,2.51,1.453,8.855,8.855,0,0,0,2.775.4,16.639,16.639,0,0,0,5.815-1.191,31.138,31.138,0,0,0,6.342-3.3,65.7,65.7,0,0,0,8.459-7.006,70.53,70.53,0,0,0,7.4-8.325q.525-.79,1.057-1.584c.353-.53.707-1.057,1.057-1.587q6.077-10.038,7.929-17.308a52.026,52.026,0,0,0,1.849-12.553q0-2.911-.265-5.553A33.291,33.291,0,0,0,247.8,8Zm42.552-21.144A90.536,90.536,0,0,1,304.1-12.089a75.352,75.352,0,0,1,10.839,2.906q3.171,1.32,6.342,2.906t7.134,3.7q2.381,1.32,4.889,2.644t5.158,2.906a14.412,14.412,0,0,0,1.584.926,14.367,14.367,0,0,1,1.584.923q7.4,4.231,13.614,8.06t7.8,4.892L343.742,38.128q-3.436-1.856-6.61-3.7l-6.342-3.7q-1.055-.53-2.379-1.188a15.459,15.459,0,0,1-2.376-1.456q-2.381-1.32-5.023-2.641t-5.55-2.644q-5.552-2.906-10.043-5.416t-8.986-4.892a124.511,124.511,0,0,0-11.5-5.285A67.278,67.278,0,0,0,271.06,3.5a16.417,16.417,0,0,0-2.245-.4,17.988,17.988,0,0,0-5.288.131,14.3,14.3,0,0,0-2.772.792,1.163,1.163,0,0,0-.53.131c-.177.092-.265.134-.265.134a2.921,2.921,0,0,0-1.319.265,2.348,2.348,0,0,1-1.06.262,8.235,8.235,0,0,1,.53,1.587c.177.7.35,1.41.53,2.114.173,1.234.4,2.687.658,4.359a32.951,32.951,0,0,1,.4,5.157,46.024,46.024,0,0,1-.527,7.265,40.654,40.654,0,0,1-1.587,6.476q-.79,2.641-1.718,5.288t-2.245,5.547a69.526,69.526,0,0,1-13.083,20.221,62.582,62.582,0,0,1-16.781,13.083,48.569,48.569,0,0,1-8.986,3.7,30.055,30.055,0,0,1-8.456,1.322,15.461,15.461,0,0,1-5.684-.53,18.929,18.929,0,0,1-4.889-2.114,11.526,11.526,0,0,1-3.963-4.755,15.125,15.125,0,0,1-1.322-6.345,29.78,29.78,0,0,1,1.057-7.664q1.055-3.961,2.641-8.194a78.785,78.785,0,0,1,3.7-8.325q2.116-4.094,4.228-7.53a70.568,70.568,0,0,1,8.194-10.7q4.757-5.154,9.513-9.382a112.122,112.122,0,0,1,12.688-9.778A45.8,45.8,0,0,1,241.725.6,8.113,8.113,0,0,1,240.8.069a8.629,8.629,0,0,0-.926-.53,9.109,9.109,0,0,0-1.849-.923,8.524,8.524,0,0,0-2.906-.4H233.8a4.984,4.984,0,0,0-1.587.265,66.359,66.359,0,0,0-12.023,3.832,102.761,102.761,0,0,0-14.141,7.268q-3.171,2.116-6.607,4.493t-6.607,5.02q-7.4,6.347-13.744,12.292T167.459,43.148q-6.342,6.872-11.9,14.006t-10.835,14.8q-3.966,5.552-8.06,11.892t-8.325,13.214q-4.492,7.137-7.929,13.614a109.34,109.34,0,0,0-5.815,12.815,119.144,119.144,0,0,0-5.285,18.768,108.024,108.024,0,0,0-1.849,20.614q0,12.154,3.832,20.218t13.61,9.647a26.207,26.207,0,0,0,2.775.4q1.453.133,2.775.131,12.419,0,23.788-7.8a85.572,85.572,0,0,0,20.083-19.426,7.182,7.182,0,0,1,.661-1.057,6.924,6.924,0,0,0,.661-1.057,69.864,69.864,0,0,0,5.946-9.516q2.778-5.282,5.154-10.835a104.2,104.2,0,0,0,3.966-11.5,38.3,38.3,0,0,0,1.584-10.174,15.014,15.014,0,0,0-1.453-7,6.407,6.407,0,0,0-5.154-3.305h-.53a.232.232,0,0,1-.262-.265h-1.057a11.741,11.741,0,0,0-8.459,3.305,75.631,75.631,0,0,0-6.6,7.268c-.177,0-.268.046-.268.131s-.085.134-.262.134a8.973,8.973,0,0,1-.53.926,4.439,4.439,0,0,1-.527.658,18.569,18.569,0,0,0-2.775,4.493,37.909,37.909,0,0,0-1.983,5.55,80.115,80.115,0,0,0-2.379,9.251q-.79,4.231-1.322,4.493-2.111.79-3.832,1.584t-3.037,1.322a10.224,10.224,0,0,0-1.322.53,3,3,0,0,0-.792.527,14.931,14.931,0,0,0-2.379,1.191c-.7.439-1.5.923-2.379,1.453-.53.35-1.1.749-1.718,1.188s-1.279.926-1.983,1.453a10.661,10.661,0,0,0-1.584,1.322,10.851,10.851,0,0,1-1.587,1.322q-3.171,2.906-5.681,5.154t-3.305,1.718a2.907,2.907,0,0,1-.4-1.456,28.374,28.374,0,0,1-.131-3.037,93.429,93.429,0,0,1,.923-11.365,75.024,75.024,0,0,1,3.57-14.8,72.42,72.42,0,0,1,3.963-9.912,40.36,40.36,0,0,1,5.815-8.852,55.06,55.06,0,0,1,16.385-13.745,39.428,39.428,0,0,1,19.03-5.023q2.111,0,3.832.134a18.152,18.152,0,0,1,3.567.658q8.458,1.856,12.026,7.4a23.908,23.908,0,0,1,3.567,13.214,53.355,53.355,0,0,1-1.587,12.422,77.741,77.741,0,0,1-4.49,13.214,130.027,130.027,0,0,1-5.949,12.818q-3.3,6.21-6.738,11.761a111.021,111.021,0,0,1-28.674,30.526q-16.523,11.761-35.284,11.758h-2.775a18.413,18.413,0,0,1-3.04-.262q-18.236-1.851-30.791-9.912T69.4,170.8a87.957,87.957,0,0,1,.527-9.382q.53-4.889,1.587-10.7a160.507,160.507,0,0,1,13.345-39.643,278.917,278.917,0,0,1,19.164-33.3q5.287-7.933,10.57-14.536t9.781-11.9q3.171-3.7,6.738-7.4t7.268-7.4A248.805,248.805,0,0,1,180.935,3.77a110.575,110.575,0,0,1,51.274-16.916h1.322a21.154,21.154,0,0,1,6.08.792A33.087,33.087,0,0,1,244.9-10.24q1.586.8,3.305,1.849a27.084,27.084,0,0,0,3.567,1.852,7.365,7.365,0,0,1,1.453.661c.442.265.838.484,1.191.658q3.961-1.846,7.53-3.171t7-2.376a59.52,59.52,0,0,1,9.912-1.852,113.184,113.184,0,0,1,11.5-.527Zm-433.44,11.1v.262h-.265q-7.662,0-17.442,5.419a125.2,125.2,0,0,0-19.825,13.875q-6.6,5.552-13.08,12.026t-12.288,12.818q-4.231,4.757-7.929,9.117t-6.872,8.59q-4.761,6.077-8.986,12.288t-8.194,12.292a222.858,222.858,0,0,0-15.593,31.583,94.8,94.8,0,0,0-6.872,28.939,24.819,24.819,0,0,0-.262,3.436v3.171q0,19.3,9.117,29.865t28.147,14.536a64.621,64.621,0,0,0,8.721,1.453q4.231.4,8.194.4a73.733,73.733,0,0,0,9.913-.664q4.884-.658,9.379-1.45A106.665,106.665,0,0,0-176.786,193q5.159-1.586,10.7-3.171,3.171-.8,6.345-1.587t6.607-1.587q8.723-2.111,15.859-3.829t14.006-3.305q6.872-1.586,14.006-3.171t15.859-2.909c.7-.173,1.365-.308,1.983-.4a19.588,19.588,0,0,0,1.98-.4q5.817-1.055,10.839-1.983t10.043-1.718q4.492-.79,9.117-1.188t9.912-.4h3.433a5.386,5.386,0,0,0,1.718.265h1.718q25.638,1.32,44.666,8.191a134.755,134.755,0,0,1,37,20.879q3.7,2.911,7.533,6.345t7.533,7.134a53.928,53.928,0,0,0-14.933-8.191,101.645,101.645,0,0,0-17.577-4.758,87.053,87.053,0,0,0-9.647-1.057q-4.889-.265-9.382-.265-3.431,0-6.473.134t-5.949.4a40.243,40.243,0,0,0-9.644,2.775,56.935,56.935,0,0,0-8.325,4.359,62.279,62.279,0,0,0-6.08,4.362q-2.376,1.983-3.436,2.775-2.111-1.851-5.154-4.892a58.124,58.124,0,0,0-7.53-6.211,94.267,94.267,0,0,0-14.932-7.4q-9.121-3.7-23.127-5.023a19.191,19.191,0,0,0-3.171-.262h-3.171a122.056,122.056,0,0,0-26.959,3.168q-14.009,3.176-30.13,7.137-2.906.8-5.812,1.587t-5.815,1.849q-15.065,4.492-29.338,8.194a111.453,111.453,0,0,1-28.013,3.7H-223.3a14.111,14.111,0,0,1-2.775-.265c-1.054,0-2.068-.043-3.037-.131a26.215,26.215,0,0,1-2.775-.4q-5.552-.79-12.818-1.983a71.529,71.529,0,0,1-14.667-4.1q-14.275-5.287-26.432-18.9t-12.684-42.418q-.265-24.318,13.61-47.707a315.417,315.417,0,0,1,33.962-46.381A250.359,250.359,0,0,1-223.3,23.192a220.5,220.5,0,0,1,29.469-21.01A139.692,139.692,0,0,1-169.384-9.052a84.251,84.251,0,0,1,23.124-4.624h.53a21.347,21.347,0,0,1,13.745,4.889A17.9,17.9,0,0,1-125.117,3.77V8a8.685,8.685,0,0,1-.262,2.114,32.7,32.7,0,0,1-6.872,15.459q-5.552,7-12.688,7h-1.188a2.6,2.6,0,0,1-1.188-.262,9.605,9.605,0,0,1-5.419-2.775,6.846,6.846,0,0,1-1.718-4.627,10.453,10.453,0,0,1,.926-4.228,32.877,32.877,0,0,1,2.245-4.228,16.977,16.977,0,0,1,3.305-3.832,19.543,19.543,0,0,1,4.1-2.775,20.061,20.061,0,0,1,4.755-2.379,12.753,12.753,0,0,1,3.7-.8h.527v-3.3a.911.911,0,0,0-.262-.661,4.98,4.98,0,0,0-1.852-3.171q-1.586-1.32-6.077-1.587Z" transform="translate(298.496 13.676)"/></g><g transform="translate(25.053 -89.39)"><path class="f" d="M209.358,82.423q49.52-9.459,88.466-26.985t74.554-37q3.9-2.229,8.07-4.454t8.623-4.451a910.357,910.357,0,0,1,83.459-39.781q43.4-18.084,100.149-23.088Q592.151-55,608.286-55.837T640-56.672q16.135,0,32.552.835c10.94.556,28.948.837,53.263,2.507C720.074-24.7,720.7-27.192,713.27-6.544c-13.627-3.1-27.517-5.362-49.033-8.992s-24.793-3.3-37.032-5.527q-9.459-1.114-19.475-2.225A186.883,186.883,0,0,0,587.143-24.4a322.387,322.387,0,0,0-42.006,3.06q-23.091,3.063-54.248,9.739-48.405,10.569-85.4,32.267T334.544,66.289q-1.669,1.109-3.616,2.5t-4.172,3.063a803.379,803.379,0,0,1-79.565,49.794q-41.17,22.536-97.923,27.541-17.245,1.669-33.383,2.5t-31.714.834a534.9,534.9,0,0,1-70.663-4.451A457.492,457.492,0,0,1-52.7,134.168c-15.207-4.081-29.386-18.128-29.386-18.128s-20.841-29.746-35.9-56.86a441.633,441.633,0,0,1-24.342-51.6c8.531,4.82,17.58,10.207,30.375,16.7s27.172,13.077,43.122,19.753q40.06,17.249,92.082,31.714t111,14.465q18.364,0,37.28-1.666a332.726,332.726,0,0,0,37.833-5.567Z" transform="translate(143.949 56.672)"/></g></g></g></svg>