<svg xmlns="http://www.w3.org/2000/svg" width="24.395" height="30.396" viewBox="0 0 24.395 30.396">
  <g id="reports" transform="translate(-6.998 -4.195)">
    <path id="Path_676" data-name="Path 676" d="M11.4,5H8.2A3.2,3.2,0,0,0,5,8.2v19.2a3.2,3.2,0,0,0,3.2,3.2h16a3.2,3.2,0,0,0,3.2-3.2V8.2A3.2,3.2,0,0,0,24.2,5H21" transform="translate(2.998 2.998)" fill="none" stroke="#fff" stroke-linecap="round" stroke-linejoin="round" stroke-width="2"/>
    <rect id="Rectangle_1573" data-name="Rectangle 1573" width="10" height="6" rx="2" transform="translate(14.195 5.195)" fill="none" stroke="#fff" stroke-linecap="round" stroke-linejoin="round" stroke-width="2"/>
    <path id="Path_677" data-name="Path 677" d="M9,20V12" transform="translate(5.396 7.195)" fill="none" stroke="#fff" stroke-linecap="round" stroke-linejoin="round" stroke-width="2"/>
    <path id="Path_678" data-name="Path 678" d="M12,17.6V16" transform="translate(7.195 9.594)" fill="none" stroke="#fff" stroke-linecap="round" stroke-linejoin="round" stroke-width="2"/>
    <path id="Path_679" data-name="Path 679" d="M15,18.8V14" transform="translate(8.994 8.395)" fill="none" stroke="#fff" stroke-linecap="round" stroke-linejoin="round" stroke-width="2"/>
  </g>
</svg>
